# xmcd
#
# Track frame offsets:
#	150
#	13315
#	26303
#	41238
#	57618
#	73935
#	89479
#	115093
#	128370
#	144970
#	161960
#	178027
#	189594
#	202327
#	217321
#	230814
#
# Disc length: 3279 seconds
#
# Revision: 1
# Processed by: cddbd v1.5.2PL0 Copyright (c) Steve Scherf et al.
# Submitted via: audiograbber 1.83.01
#
DISCID=fd0ccd10
DTITLE=Kridlovanka - Z marcipáni srdécko
DYEAR=2007
DGENRE=Folk
TTITLE0=Bourbon
TTITLE1=Z marcipánu srdecko
TTITLE2=Pisen o cekance
TTITLE3=Andéliceck
TTITLE4=Pisen svateho Valentyna
TTITLE5=Uprimná
TTITLE6=Verim na lásku pravú
TTITLE7=Pekná zahradecka
TTITLE8=Miss Trombone
TTITLE9=Listecku dubrovy
TTITLE10=Kostelicka bílá
TTITLE11=Vim,vim
TTITLE12=Na dvorku
TTITLE13=Vinohrad krásné voní
TTITLE14=Ü smev slunicka
TTITLE15=Petrcloková
EXTD=
EXTT0=
EXTT1=
EXTT2=
EXTT3=
EXTT4=
EXTT5=
EXTT6=
EXTT7=
EXTT8=
EXTT9=
EXTT10=
EXTT11=
EXTT12=
EXTT13=
EXTT14=
EXTT15=
PLAYORDER=
